<?xml version="1.0" standalone="no"?>
<!DOCTYPE svg PUBLIC "-//W3C//DTD SVG 20010904//EN"
 "http://www.w3.org/TR/2001/REC-SVG-20010904/DTD/svg10.dtd">
<svg version="1.0" xmlns="http://www.w3.org/2000/svg"
 width="300.000000pt" height="275.000000pt" viewBox="0 0 300.000000 275.000000"
 preserveAspectRatio="xMidYMid meet">
<metadata>
Created by potrace 1.10, written by Peter Selinger 2001-2011
</metadata>
<g transform="translate(0.000000,275.000000) scale(0.100000,-0.100000)"
fill="#000000" stroke="none">
<path d="M1492 2734 c-1 -5 -127 -187 -280 -403 l-278 -393 75 -242 c41 -132
76 -243 79 -246 3 -3 6 0 8 5 2 6 94 167 204 358 l200 347 -3 292 c-1 161 -3
288 -5 282z m-50 -604 c-27 -54 -124 -224 -264 -462 -38 -65 -73 -118 -78
-118 -5 0 -28 60 -50 133 -23 72 -48 151 -56 175 -22 67 -18 82 44 165 31 43
93 130 137 193 149 214 268 379 279 386 8 5 12 -53 14 -205 l2 -212 -28 -55z"/>
<path d="M1528 2447 l3 -292 199 -345 c110 -190 203 -351 208 -359 6 -10 19
19 41 90 18 57 54 169 80 249 l47 146 -285 396 c-157 218 -288 399 -291 402
-3 2 -4 -127 -2 -287z m79 120 c12 -17 62 -88 113 -157 50 -69 109 -150 130
-180 172 -240 210 -296 210 -309 0 -16 -55 -198 -71 -236 -5 -11 -17 -47 -27
-79 -9 -33 -22 -61 -28 -63 -6 -2 -17 9 -25 24 -8 15 -32 57 -53 93 -57 95
-176 302 -176 306 0 2 -15 27 -34 56 -87 137 -86 133 -86 372 0 231 2 239 47
173z"/>
<path d="M585 2510 c-167 -26 -310 -95 -404 -195 -70 -76 -106 -141 -131 -241
-91 -356 127 -806 579 -1196 l54 -47 -26 -103 c-14 -57 -24 -104 -22 -106 2
-2 24 35 50 82 44 81 57 96 69 78 2 -4 -24 -55 -59 -112 l-64 -105 242 -5
c133 -3 243 -7 245 -8 1 -1 2 -7 2 -13 0 -8 -70 -10 -241 -8 -132 2 -235 0
-227 -4 7 -4 195 -116 418 -249 223 -132 410 -242 415 -244 6 -2 -17 80 -51
183 -34 104 -60 189 -59 191 1 1 9 0 17 -3 10 -4 35 -72 69 -186 41 -136 55
-174 61 -157 4 13 23 76 43 140 33 108 43 127 57 113 2 -3 -16 -68 -42 -145
-25 -77 -44 -140 -42 -140 1 0 80 46 174 102 l172 101 86 -16 c535 -103 881
31 931 361 8 54 8 96 -1 160 -12 92 -73 297 -92 308 -8 5 -9 1 -4 -12 60 -153
38 -283 -63 -377 -86 -80 -176 -115 -321 -124 -398 -23 -1002 298 -1506 801
-296 297 -438 537 -439 746 0 73 4 93 28 142 83 170 350 262 591 204 38 -9 71
-15 73 -13 6 7 -108 46 -208 71 -110 28 -282 40 -374 26z m179 -43 c-2 -7 -26
-20 -53 -30 -120 -42 -222 -140 -256 -245 -34 -104 -9 -266 63 -407 38 -72
153 -241 209 -305 139 -159 362 -369 500 -472 32 -23 60 -46 63 -49 10 -11
196 -136 285 -190 108 -66 275 -149 386 -189 152 -56 235 -72 439 -84 71 -4
177 20 256 59 79 39 127 79 170 144 14 23 31 41 35 41 5 0 9 -36 9 -80 0 -349
-308 -502 -834 -416 -96 16 -156 22 -171 16 -12 -5 -72 -38 -133 -74 -61 -36
-115 -66 -121 -66 -5 0 -1 30 11 68 32 105 32 115 8 137 -16 15 -25 17 -38 9
-15 -10 -53 -88 -66 -138 -9 -33 -22 -8 -56 103 -26 86 -38 112 -57 122 -21
11 -26 10 -44 -8 -20 -20 -20 -22 -5 -79 8 -33 26 -94 40 -136 13 -43 22 -78
20 -78 -12 0 -101 50 -298 167 -268 160 -326 196 -326 206 0 4 62 7 138 7 142
0 184 10 190 42 7 38 -34 47 -228 49 -105 1 -188 6 -191 12 -4 5 11 40 33 78
47 81 46 114 -2 131 -17 5 -30 15 -30 22 0 14 -33 49 -139 146 -283 258 -470
574 -501 848 -12 104 -7 161 21 255 54 183 177 299 394 369 81 26 288 37 279
15z"/>
<path d="M1350 1848 c-89 -156 -183 -316 -207 -357 l-45 -75 27 -91 c27 -90
28 -91 98 -150 147 -125 446 -336 510 -361 9 -3 42 87 108 294 l95 299 -208
358 c-114 196 -209 359 -211 362 -3 2 -78 -123 -167 -279z m189 174 c16 -23
101 -168 155 -267 7 -11 24 -39 39 -62 15 -24 27 -45 27 -47 0 -3 29 -55 65
-116 39 -67 65 -123 65 -140 0 -16 -11 -59 -24 -97 -26 -75 -74 -225 -101
-318 -24 -79 -36 -105 -50 -105 -16 0 -252 158 -350 235 -155 121 -181 149
-204 217 -12 34 -21 70 -21 80 0 11 34 78 76 151 42 73 95 164 117 202 22 39
52 90 67 115 15 25 44 75 66 113 21 37 41 67 45 67 4 0 17 -13 28 -28z"/>
<path d="M882 1737 c-30 -138 -32 -156 -20 -189 12 -35 150 -198 167 -198 4 0
15 15 25 33 16 32 16 34 -57 265 -41 127 -76 234 -78 236 -2 2 -19 -64 -37
-147z m88 -119 c56 -175 59 -187 49 -193 -13 -9 -98 82 -116 124 -20 46 -1
171 25 171 5 0 24 -46 42 -102z"/>
<path d="M2040 1647 l-76 -242 166 -285 c91 -157 190 -327 219 -377 29 -51 54
-93 56 -93 1 0 -8 42 -20 93 -13 50 -76 322 -140 602 -64 281 -119 518 -123
527 -5 12 -34 -68 -82 -225z m109 -54 c39 -163 73 -305 75 -318 11 -50 21 -94
41 -180 31 -133 38 -175 28 -175 -9 0 -47 59 -89 139 -35 65 -46 85 -60 102
-6 8 -28 46 -49 84 -21 39 -48 86 -60 105 -30 49 -37 71 -26 84 5 6 11 23 13
36 8 48 80 260 88 255 4 -3 22 -62 39 -132z"/>
<path d="M2671 1494 l-22 -90 -86 -30 -86 -31 77 -48 76 -48 0 -89 c0 -48 3
-88 6 -88 3 0 35 25 70 55 36 30 68 55 72 55 4 0 43 -11 87 -25 44 -14 81 -25
82 -25 1 0 -14 38 -33 85 l-34 85 50 70 c27 39 50 72 50 74 0 2 -40 1 -88 -2
l-89 -5 -41 54 c-23 30 -48 63 -55 73 -13 17 -16 10 -36 -70z m87 -54 c35 -35
46 -40 86 -40 53 0 56 -8 25 -59 -18 -30 -19 -40 -10 -77 17 -67 17 -67 -39
-59 -45 6 -56 4 -90 -19 -22 -14 -44 -26 -48 -26 -5 0 -12 21 -15 48 -4 39
-12 53 -46 83 -23 20 -41 39 -41 43 0 3 16 12 36 21 32 13 73 50 74 67 0 11
19 58 23 58 2 0 22 -18 45 -40z"/>
<path d="M1067 1354 c-15 -30 -15 -31 14 -58 16 -16 31 -27 33 -25 1 2 -5 29
-14 59 l-17 54 -16 -30z"/>
<path d="M1945 1358 c-22 -66 -175 -557 -175 -562 0 -14 233 -118 348 -156 87
-28 138 -39 200 -42 45 -2 82 -1 82 3 0 3 -74 132 -164 286 -90 154 -189 326
-221 382 -31 55 -59 101 -61 101 -3 0 -7 -6 -9 -12z m89 -187 c36 -60 66 -111
66 -114 0 -3 33 -61 73 -129 98 -163 157 -272 157 -287 0 -29 -159 10 -331 82
-171 71 -194 93 -171 155 6 15 25 74 42 132 18 58 36 114 40 125 5 11 11 33
15 49 8 36 32 96 39 96 3 0 34 -49 70 -109z"/>
</g>
</svg>
