<?xml version="1.0" standalone="no"?>
<!DOCTYPE svg PUBLIC "-//W3C//DTD SVG 20010904//EN"
 "http://www.w3.org/TR/2001/REC-SVG-20010904/DTD/svg10.dtd">
<svg version="1.0" xmlns="http://www.w3.org/2000/svg"
 width="300.000000pt" height="275.000000pt" viewBox="0 0 300.000000 275.000000"
 preserveAspectRatio="xMidYMid meet">
<metadata>
Created by potrace 1.10, written by Peter Selinger 2001-2011
</metadata>
<g transform="translate(0.000000,275.000000) scale(0.100000,-0.100000)"
fill="#ffffff" stroke="none">
<path d="M1225 2348 c-148 -209 -274 -390 -279 -402 -11 -29 136 -503 151
-484 5 7 98 167 207 355 l196 343 -2 284 -3 285 -270 -381z"/>
<path d="M1530 2445 l0 -289 208 -358 207 -359 72 223 c40 123 75 237 78 253
5 27 -24 70 -266 405 -149 206 -277 384 -285 395 -12 17 -14 -19 -14 -270z"/>
<path d="M593 2509 c-88 -10 -209 -49 -283 -92 -80 -44 -178 -149 -218 -229
-155 -316 -8 -767 377 -1158 53 -53 123 -120 155 -148 l60 -50 -22 -93 c-11
-51 -20 -95 -18 -96 2 -2 23 30 46 72 42 72 60 91 60 61 0 -8 -25 -56 -55
-107 -30 -52 -55 -97 -55 -101 0 -5 99 -8 219 -8 121 0 226 -3 235 -6 46 -18
-5 -24 -209 -26 l-225 -3 412 -246 c227 -136 414 -245 416 -244 2 2 -22 82
-53 180 -31 97 -55 180 -53 185 9 28 31 -22 77 -174 28 -93 53 -171 54 -173 2
-2 23 58 47 133 28 88 46 132 52 126 7 -7 -4 -56 -32 -142 -23 -73 -40 -133
-38 -135 2 -1 79 43 171 98 l168 100 132 -21 c73 -12 169 -24 214 -27 165 -12
373 28 476 91 193 120 249 339 159 621 l-27 85 0 -93 c0 -112 -20 -164 -86
-229 -218 -211 -654 -160 -1145 134 -395 236 -792 594 -982 884 -215 329 -199
578 46 701 116 59 233 79 356 62 44 -6 81 -9 83 -7 7 6 -115 44 -192 60 -96
19 -235 26 -322 15z"/>
<path d="M1467 2053 c-96 -167 -345 -599 -356 -620 -10 -19 -7 -38 14 -107 29
-95 44 -112 220 -249 129 -100 392 -274 400 -265 12 13 185 585 182 599 -5 18
-392 695 -407 712 -4 5 -28 -27 -53 -70z"/>
<path d="M2042 1653 c-40 -126 -72 -234 -72 -242 0 -14 422 -752 427 -747 4 3
-275 1207 -280 1212 -2 2 -36 -98 -75 -223z"/>
<path d="M896 1793 c-43 -191 -44 -203 -35 -238 9 -32 151 -205 168 -205 3 0
14 14 24 31 17 31 17 31 -55 260 -39 126 -74 229 -78 229 -4 0 -15 -35 -24
-77z"/>
<path d="M2670 1485 l-23 -84 -78 -26 c-44 -15 -79 -30 -79 -33 0 -4 31 -26
69 -49 l68 -43 5 -80 c3 -44 7 -83 11 -86 3 -3 33 17 67 45 33 28 63 51 66 51
3 0 39 -10 80 -22 41 -11 76 -19 79 -17 2 3 -9 40 -26 82 l-30 78 46 63 c25
35 45 66 45 70 0 3 -38 6 -85 6 l-85 0 -51 65 c-28 36 -52 65 -54 65 -2 0 -13
-38 -25 -85z"/>
<path d="M1071 1351 c-12 -21 -10 -26 13 -50 29 -29 32 -18 12 39 l-13 35 -12
-24z"/>
<path d="M1880 1149 c-39 -123 -81 -252 -92 -287 -11 -35 -18 -65 -16 -67 14
-14 218 -108 298 -138 123 -45 191 -59 268 -55 l62 3 -219 378 c-120 208 -221
380 -224 383 -3 4 -38 -95 -77 -217z"/>
</g>
</svg>
